 http://www.imdb.com/title/tt0083055/

=============

Two guys, Laura's driver and Roscoe, sneak aboard an all girl cruise ship with 600 horny, mouth watering broads for six whole weeks, with not one dude aboard! The trip of a lifetime takes a twist when slave trading pirates hijack the ship, with only our two heroes to stop them.

Starring

Kandi Barbour, Loni Sanders, Nicole Black, Cody Nicole, Hillary Summers, Kelly Nichols

=============

Video
ID                               : 0
Format                           : MPEG-4 Visual
Format profile                   : Advanced Simple@L5
Format settings, BVOP            : 2
Format settings, QPel            : No
Format settings, GMC             : No warppoints
Format settings, Matrix          : Default (H.263)
Muxing mode                      : Packed bitstream
Codec ID                         : XVID
Codec ID/Hint                    : XviD
Duration                         : 1h 20mn
Bit rate                         : 1 116 Kbps
Width                            : 704 pixels
Height                           : 470 pixels
Display aspect ratio             : 3:2
Frame rate                       : 25.000 fps
Color space                      : YUV
Chroma subsampling               : 4:2:0
Bit depth                        : 8 bits
Scan type                        : Progressive
Compression mode                 : Lossy
Bits/(Pixel*Frame)               : 0.135
Stream size                      : 644 MiB (94%)
Writing library                  : XviD 1.2.1 (UTC 2008-12-04)

Audio
ID                               : 1
Format                           : MPEG Audio
Format version                   : Version 1
Format profile                   : Layer 3
Mode                             : Joint stereo
Mode extension                   : MS Stereo
Codec ID                         : 55
Codec ID/Hint                    : MP3
Duration                         : 1h 20mn
Bit rate mode                    : Constant
Bit rate                         : 64.0 Kbps
Channel(s)                       : 2 channels
Sampling rate                    : 48.0 KHz
Compression mode                 : Lossy
Stream size                      : 36.9 MiB (5%)
Alignment                        : Aligned on interleaves
Interleave, duration             : 24 ms (0.60 video frame)
Interleave, preload duration     : 24 ms
